<?xml version="1.0" encoding="UTF-8"?>
<svg version="1.1" viewBox="0 0 1920 1080" width="1280" height="1280" xmlns="http://www.w3.org/2000/svg">
<path transform="translate(541,355)" d="m0 0 3 4 3 8 9 17 3 9 3 4h13l18-1 1-1h13l6 10 12 12 4 3-3 9-5 13-10 19-4 7-9 17-8 15-5 8-5 10-10 19-6 11-3 6-2 1-4 9-6 11-4 8-7 12-5 10-3 4-6 12-6 11-5 9-18 34-3 4 1 2 24-21 13-11 6-4 4-2 1-2 10-5 11-6 11-4 5-2 8-1 2-1h9l17 1 5 3 7 3 11 8 8 9 3 5 5 12 3 6 1 9v36l-1 7-1 1-1 7-1 2-1 5-4 14-4 10-3 6-2 7-8 16-5 9-7 12-6 9-9 13-6 7-9 11-26 26-8 7-20 15-5 4-5 3-13 8-6 4-7 4-16 8-11 5-12 4-7 3-10 2-11 2h-22l-6-1-4-1-7-2-12-6-10-9-7-6-2-4-2-2-2-4-4-11-1-1-2-14-1-2v-18l1-2 2-19 2-6 3-12 6-19 4-8 2-9 4-6 4-11 8-15 8-16 4-7 7-14 5-8 5-10 6-11 5-9 10-19 3-5 7-13 10-19 3-5 8-15 9-17 3-4 8-16 12-22 8-15 6-10 13-26 6-10 5-10 6-10 5-10 10-19 5-12v-17l-3-8-8 1-7 5-9 13-4 7-7 11-8 14-5 8-6 9-6 11-8 13-7 11-8 14-3 5-7 11-7 12-10 16-6 10-5 9-4 5-3 6-8 14-6 9-7 12-6 9-8 11-6 9-4 4-1 3-5 5-11 12-16 14-11 6-8 3-7 1-1 1h-14l-9-3-11-7-8-8-7-11-3-5-3-12-2-5-1-10-1-1-1-15-1-5v-20l1-2 1-16 1-2 2-16 6-23 4-10 4-11 7-14 6-11 4-5 4-7 6-8 3-5 8-7 13-13 9-6 7-5 12-4 5-1 7-2 7 1 9 2 9 5 5 4 6 7 4 7 3 9 1 7 1 1v30l-1 2v8l-2 9-2 7v5l4-5 4-6 4-7 5-8 4-7 5-8 6-11 7-11 12-20 6-9 3-6 6-9 3-6 5-9 7-11 4-7 8-12 3-5 6-9 6-8 11-7zm-152 114-9 4-11 8-23 23-6 7-3 5-3 3v3l-3 1-5 9-4 5-4 7-7 10v3l-3 1-9 18-6 11-4 11-4 8-3 11-3 12-1 10v12l1 8 4 9 7 8 4 3 8 2 11-3 9-6 6-6 5-3 6-7 5-5 5-6 6-7 1-3 4-4 7-11 3-3 4-7 5-8 4-7 13-26 4-11 4-7 4-13 2-7 3-11 2-21v-4l-2-16-8-9-3-1zm176 172-10 3-11 6-10 7-8 7-8 6-12 12v2l-4 2-4 6-10 11-6 8-6 7-3 5-8 11-6 9-4 7-5 8-4 7-7 13-9 17-4 10-3 6-4 9-5 14-4 10-6 18-1 6-2 7-1 6-1 16-1 2v6l1 1 2 9 4 8 10 8 9 3h13l1-1 10-2 17-8 8-7 5-3 13-12 5-4 4-6 6-6v-3l3-1 6-8 3-5 6-7 6-11 5-6 1-6 3-1 4-7 7-13 9-17 8-16 3-7 2-6 4-6 1-5 4-8 5-16 4-10 5-21 2-7 1-12 1-1v-18l-1-1-2-11-4-6-8-6-4-2z" fill="#7F7F7F"/>
<path transform="translate(872,376)" d="m0 0 31 1 34 6 12 3 24 9 19 10 14 9 11 9 9 11 7 9 6 12 5 17 2 12-1 13-2 12-6 16-9 12-8 11-10 10-15 13-15 10-5 4-9 5-7 4-18 10-13 6-16 7-13 5-22 8-2 2 1 4 11 7 10 7 13 8 6 4 11 6 28 16 28 11 11 3h18l11-4 6-2 2 2 3 16v7l-4 12-6 9-7 6-9 4-8 1h-10l-14-2-18-5-9-4-16-8-21-11-11-8-11-7-11-8-13-9-13-10-8-6-8-7-11-9-6-5h-4l-10 21-12 26-5 12-6 13-5 13-8 16-5-1-6-3-7-6-8-11-4-9-1-5v-16l11-27 8-19-1-4-18-4-16-8-9-7-6-9-4-8-3-14 17 1 65-1 10-18 8-16 10-18 5-8 3-6 8-14 10-16 8-13 12-20 9-14 7-11 6-9 9 1 8 9 7 15 4 15 2 13-2 10-10 14-18 26-9 14-6 9-3 5-3 4-3 6-5 7v6l9-2 14-5 16-8 17-8 14-8 12-8 11-8 9-7 10-8 5-5 11-13 6-9 2-2 5-14 2-10-1-9-4-12-7-11-8-7-8-5-17-8-19-5-16-3-13-1h-22l-17 2-10 2-21 5-15 5-15 8-16 8-10 6-16 12-10 10-5 6-9 15-4 13-1 16 1 9 5 11v2l-10 3h-19l-15-5-9-7-8-9-4-8-3-10v-13l4-16 8-16 8-11 16-16 14-10 22-14 12-7 10-4 8-4 16-6 23-7 18-4 2-1 23-3z" fill="#F80102"/>
<path transform="translate(1339,502)" d="m0 0 7 1 14 7 10 9 5 6v8l-7 16-7 10-3 7-8 16-15 29-7 12-32 64-8 17-10 23-7 15-12 30-1 9 4-4 11-16 13-16 7-9 9-10 7-8 10-10 4-2 5-5 12-11 15-10 4-2h7l6 4 3 4-1 5-7 8-8 6-9 11-8 10-14 19-10 16-5 7-6 11-5 9-13 26-5 15-5 6-10 7-5 2h-12l-14-7-8-7-5-6-3-5-8-16-1-3v-10l6-24 9-27 12-33 5-11 5-13 8-16 7-15 8-16 6-11v-3l-5 2-8 7-4 4-8 7-21 21-8 6-10 8-11 6-8 1-9-3-9-6-7-6-8-10-5-8-2-14-1-1-7 1-10 5-13 4-9 3-7 6-6 7-14 10-9 5-13 5-14 2-14-1-12-3-9-4-10-7-6-5-9-18-1-7v-16l4-20 4-12 6-11 5-3 4 2 5 4 5 8 8 17 4 6 1 5-3 10v22l3 3h9l6-3 10-9 2-2-1-5-11-9-12-14-6-13-3-11v-22l5-15 10-14 9-8 5-4 14-7 11-4 15-3h15l16 4 10 6 7 6 5 9 3 10v24l-2 10-4 13-5 11-1 7 6-2 8-5 12-9 11-11 6-8 7-8 8-10 11-9 8-8 11-8 6-4 10-7 18-7 17-3 21 3 13 6 4 2h5l4-7 1-8 3-3zm-229 35-12 6-13 13-7 12-3 11v12l3 9 6 10 4 1 8-7 7-11 9-13 10-21 3-13-3-7-1-1zm201 0-16 4-16 8-14 10-11 9-7 7-9 11-9 10-12 17-8 11-7 14 1 4 5-1 11-7 11-8 20-15v-2l4-2 14-11 10-10 12-11 12-12 8-11 6-8v-5z" fill="#F80102"/>
<path transform="translate(962,188)" d="m0 0h19l12 3 12 6 9 9 6 13 2 12v9l-5 22-5 13-4 8v4l6-1 8-5 12-9 15-15 14-27 6-15 2-15 2-5 2-1h8l12 7 10 9 6 7 3 9 5-1 7-6 8-7 11-10 10-7 7-4 3-1h8l10 5 19 19 5-1 9-8 12-9 10-5 8 1 12 7 12 11 7 10 1 5-11 23-12 22-17 34v3l6-2 15-15 16-17 5-5 9-10 3-3 5 1 5 8 1 10-10 16-11 12-10 13-9 9-4 6-24 24-10 6-8 1-12-6-11-8-7-9-4-8v-10l6-16 7-15 11-21 4-5 4-8 8-13 2-4-1-4-9 4-11 8-8 8-6 8-5 5-12 16-6 9-11 19-8 15-7 16-5 12-4-1-6-4-9-11-4-8v-17l2-8 5-17 5-11 5-12 8-15 9-15v-3l-5 1-10 6-13 11-8 8-4 6-6 7-9 13-11 19-20 39-11 18-7-1-13-12-6-9-3-7-1-8 2-7v-5l-4-1-10 6-15 6-13 4-8 7-11 10-14 10-18 6-12 2h-7l-18-4-16-8-10-9-7-10-2-9-1-18 2-17 2-8 5-13 5-9 3-2 6 1 4 5 8 13 6 12 4 7-1 9-2 9-1 8 2 10 2 2h11l8-5 7-7 2-5-16-14-9-12-6-13-4-16 1-13 4-13 6-11 11-13 11-7 14-7 11-4zm15 26-11 4-6 4v2l-4 2-3 3v2l-4 2-8 15-2 5v18l5 12 7 6 5-3 9-12 7-11 8-14 6-13 2-7-1-11-4-3z" fill="#F80102"/>
<path transform="translate(1648,513)" d="m0 0h22l10 4 6 4 5 4 5 5 6 8 5 11v8l-6 10-11 12-20 15-11 7-10 6-14 6-15 5-24 3-4 2-8 14-2 5v5l3 2h9l16-6 19-10 22-13 10-7 15-10 3-3 13-10 11-10 4-2 5 1 3 3 3 8v7l-6 5-7 8-5 4-16 16-8 7-5 4-11 9-8 6-13 9-19 11-11 5-13 3-10-2-10-4-10-6-14-13-6-9-4-5-4 2-28 28-10 7-11 1-14-7-12-11-6-8-2-11 2-8v-7l-5 3-9 8-7 8-25 25-10 7-3 1h-7l-10-5-14-12-7-10-2-3v-13l6-17 7-15 8-15 10-19 6-10 7-16 4-10 2-16 4-5 4-1 11 4 10 8 10 10 3 6v7l-21 33-4 5-12 21-8 16-3 8 1 4 9-6 10-10 8-6 5-5 5-6 5-5 13-11 24-24 7-8 10-13 6-10 2-5 2-9 2-3 4-1 9 3 12 7 9 11 4 7v7l-8 16-9 17-8 16-14 29 1 3 11-8 8-8 9-11 10-9 7-8 12-16 7-9 6-5 7-8 10-9 8-6 15-10 16-8zm16 31-14 9-9 7-8 7-14 14-3 5 1 3 5-1 14-9 17-13 15-15 2-6-1-1z" fill="#F80102"/>
<path transform="translate(776,98)" d="m0 0 5 1 15 9 12 9 15 14 9 11 7 10 10 16 8 20 4 14 2 8 1 18-1 16-5 22-9 21-8 13-4 6-8 10-12 14-7 8-15 14-6 4-10 8-10 7-15 10-19 10-9 5-10 4-9 4-15 6-14 4-12 2h-18l-14-6-9-7-4-5-8-16-1-14 2-13 4-3 12 14 5 2h9l9-3 24-9 19-9 11-6 16-9 16-11 17-13 12-11 16-16 8-10 11-17 5-11 5-13 3-10 1-12v-16l-2-10-3-9-7-14-11-12-15-11-14-7-2-4 9-19z" fill="#F80102"/>
<path transform="translate(771,14)" d="m0 0h32l-1 5-10 21-8 16-4 7-4 11-8 16-9 17-5 13-4 7-13 26-5 12-8 15-8 16-4 10-8 16-8 15-6 14-8 17-10 19-4 10-10 19-4 9-6 13-8 17v2l-5-2-3-3-3-6-4-4-5-2-5 1-2 1 1-4 4-5 3-6 3-5 3-9v-10l-1-2-10 1-8 8-7 11-5 9-2 7-1 3v8l4 2 5-1 3-1-2 5-1 6v25l-18 2h-9l-4 1-4-4-3-8-3-6-8-20 8-11 4-7 7-10 6-9 4-7 7-10 4-7 7-10 12-20 4-5 5-7 3-6 12-18 4-5 4-8 4-5 4-7 12-18 6-10 4-5 6-11 8-11 8-13 10-15 5-8 6-9 9-14 7-11 5-7 4-7 18-27 10-16z" fill="#7F7F7F"/>
<path transform="translate(1441,336)" d="m0 0h33l6 2 7 2 10 4 12 7v2l3 1v2l3 1v2h2l4 5 5 6 8 17 5 14 4 9 4 5v2l4 1 7 3h13l4-1 2-4 3-4 1-7-2-7-5-3h-7l-4 4-1 4h2v3l-3-1-3-7 1-7 7-8h15l9 5 6 5 4 7 2 5v18l-2 10-3 5-2 6-7 11-11 11h-3l-1 3-11 6-13 4-7 2-10 1-24 1-2-1-12-1-9-2-7-2-11-3-5-2v-2l-7-1-8-5-6-4-12-11-8-9-6-11-6-12-4-12-2-17-1-4 1-2 2-13 2-7 6-9 11-11z" fill="#FEFEFE"/>
<path transform="translate(1334,335)" d="m0 0 20 1 10 3 10 6 5 5 6 7 4 7 2 10 1 1v20l-1 1-2 13-4 8-4 10-4 8h-2l-1 4-2 4-5 4-4 5-11 9-9 6-10 5-7 3-10 2-6 2-10 2-10 1h-27l-9-1-13-3-15-7-8-5v-2h-2v-2h-2l-3-3v-2l-4-1-6-9-4-9-3-9-1-8-1-1v-12l4-10 5-7h2l1-3 5-3 6-2h12l6 4 3 4v9l-1 3h-2l-1 3-1-8-4-3h-6l-7 6v8l4 8v2l7 2h12l10-5 4-5 3-4 5-16 12-24 11-12 8-7 11-6 7-3 13-3z" fill="#FEFEFE"/>
<path transform="translate(641,69)" d="m0 0h41l26 3 8 3-1 5-5 8-7 10-7 11-3 2-35 2-27 5-15 4-16 6-10 4-17 11-8 7-9 9-8 16-3 9v13l1 3v8h-15l-8-1-17-9-6-5-7-10-3-11-1-1v-20l6-16 3-3 2-5 5-5 6-7 11-9 19-10 11-5 19-7 8-3 14-4 14-3 17-3z" fill="#F80102"/>
<path transform="translate(1051,810)" d="m0 0 42 1 6 4 4 3v12l-3 4 1 4 5 5 2 4v10h-2l-1 4-5 5-4 2-3 1h-41l-1-1-1-57zm8 7v17h33l3-3v-11l-3-3zm0 23v23h33l6-3 2-4v-9l-2-4-8-3z" fill="#F7FA37"/>
<path transform="translate(687,811)" d="m0 0h40l8 4 4 8v7h-2l-2 6 7 9 1 9-3 7-4 5-6 3h-43zm7 6-2 2v13l2 2h32l5-4v-9l-5-4zm-1 23-1 1v20l2 2h33l5-3 2-2 2-5-1-4-2-5-3-3-4-1z" fill="#F7FA35"/>
<path transform="translate(931,811)" d="m0 0h40l7 4 4 7 1 2-1 9-4 6-3 3-4 2 1 4 3 6 6 10 2 5h-8l-5-9-6-11-3-5h-22l-1 25h-7l-1-16v-30zm8 6-1 1v18l1 1h29l5-3 2-2v-10l-5-4-2-1z" fill="#F7FA36"/>
<path transform="translate(1411,811)" d="m0 0h42l5 5 2 4 2 1-1 5h2l-1 8-4 4-1 2h-3v2l-4 2 4 9 6 10v3l3 1-1 3-7-1-3-5-2-1-4-9-5-10h-23v25l-1 1h-6zm7 6-1 1-1 10h2l-2 5 2 4h29l5-2 2-2 1-8-2-5-5-3z" fill="#F7FA39"/>
<path transform="translate(1630,810)" d="m0 0h7l2 5v3h2l11 23 11 22v2h2l1 5-11-2-1-6-4-7h-33l-6 10v3h-2v2h-7l-1-2 6-10 9-17 3-6 2-7 8-16zm3 12-5 7-7 15 3 3h19l3-3-8-16-4-6z" fill="#F7F93A"/>
<path transform="translate(1312,810)" d="m0 0h6l4 10v2l3 1-1 3h2l5 12v2l2 1 6 13 5 10 2 1 1 4-1 1h-7l-7-14-1-1h-33l-3 8-2 1-2 6h-8v-4l3-4 5-10 3-7 12-24 1-3h2l1-4zm2 12-4 5v4h-2l-6 12 1 3 21 1 3-3-9-19z" fill="#F6F93B"/>
<path transform="translate(832,811)" d="m0 0h7l6 12 4 10 8 16 2 6 2 1 1 5h2l1 6h2v2h-7l-3-3-4-9v-3l-34 1-8 14h-8v-2l3-3 9-20 1-3h2l1-5 8-16zm2 12-4 7-7 14 1 2 20 1 3-2-1-5-9-17z" fill="#F7FA37"/>
<path transform="translate(1178,811)" d="m0 0h29l2 6h-25v17h24v8h-24v20l42 1v6h-48l-1-2v-55z" fill="#F7FA41"/>
<path transform="translate(1531,809)" d="m0 0h6v60h-7v-59z" fill="#F7FA35"/>
<path transform="translate(1682,778)" d="m0 0h6l9 4 7 7 1 5v11l-6 9-3 3-5 2h-12l-9-6-4-7-1-1v-11l7-10h2v-3zm1 4-8 3-4 4-3 6v9l6 9 4 2 6 1h7l4-4 4-1 3-6v-10l-2-5-8-7z" fill="#F7F94F"/>
<path transform="translate(1681,788)" d="m0 0 10 2 1 2v6l-3 4 5 7v2l-4-2-4-6-5-1v9l-5 1v-23zm0 3v8l8-1 1-5-2-2z" fill="#F7FA39"/>
<path transform="translate(850,587)" d="m0 0 2 3h-2z" fill="#F80102"/>
<path transform="translate(1146,607)" d="m0 0 1 2-2-1z" fill="#F80102"/>
<path transform="translate(1153,635)" d="m0 0 2 1z" fill="#F80102"/>
<path transform="translate(1274,839)" d="m0 0" fill="#F80102"/>
<path transform="translate(1221,819)" d="m0 0" fill="#F80102"/>
<path transform="translate(1292,809)" d="m0 0" fill="#F80102"/>
<path transform="translate(1298,796)" d="m0 0" fill="#F80102"/>
<path transform="translate(1316,764)" d="m0 0" fill="#F80102"/>
<path transform="translate(1324,752)" d="m0 0" fill="#F80102"/>
<path transform="translate(770,752)" d="m0 0" fill="#F80102"/>
<path transform="translate(767,752)" d="m0 0" fill="#F80102"/>
<path transform="translate(1281,748)" d="m0 0" fill="#F80102"/>
<path transform="translate(759,748)" d="m0 0" fill="#F80102"/>
<path transform="translate(1287,741)" d="m0 0" fill="#F80102"/>
<path transform="translate(746,735)" d="m0 0" fill="#F80102"/>
<path transform="translate(1307,718)" d="m0 0" fill="#F80102"/>
<path transform="translate(908,717)" d="m0 0" fill="#F80102"/>
<path transform="translate(892,706)" d="m0 0" fill="#F80102"/>
<path transform="translate(882,700)" d="m0 0" fill="#F80102"/>
<path transform="translate(881,699)" d="m0 0" fill="#F80102"/>
<path transform="translate(1030,691)" d="m0 0" fill="#F80102"/>
<path transform="translate(1029,690)" d="m0 0" fill="#F80102"/>
<path transform="translate(1342,687)" d="m0 0" fill="#F80102"/>
<path transform="translate(854,679)" d="m0 0" fill="#F80102"/>
<path transform="translate(1024,678)" d="m0 0" fill="#F80102"/>
<path transform="translate(1177,674)" d="m0 0" fill="#F80102"/>
<path transform="translate(1094,668)" d="m0 0" fill="#F80102"/>
<path transform="translate(1167,664)" d="m0 0" fill="#F80102"/>
<path transform="translate(1104,660)" d="m0 0" fill="#F80102"/>
<path transform="translate(996,654)" d="m0 0" fill="#F80102"/>
<path transform="translate(817,650)" d="m0 0" fill="#F80102"/>
<path transform="translate(892,645)" d="m0 0" fill="#F80102"/>
<path transform="translate(1204,639)" d="m0 0" fill="#F80102"/>
<path transform="translate(875,632)" d="m0 0" fill="#F80102"/>
<path transform="translate(1088,608)" d="m0 0" fill="#F80102"/>
<path transform="translate(1149,607)" d="m0 0" fill="#F80102"/>
<path transform="translate(1159,601)" d="m0 0" fill="#F80102"/>
<path transform="translate(949,600)" d="m0 0" fill="#F80102"/>
<path transform="translate(700,599)" d="m0 0" fill="#F80102"/>
<path transform="translate(1167,595)" d="m0 0" fill="#F80102"/>
<path transform="translate(788,588)" d="m0 0" fill="#F80102"/>
<path transform="translate(852,583)" d="m0 0" fill="#F80102"/>
<path transform="translate(1e3 579)" d="m0 0" fill="#F80102"/>
<path transform="translate(1e3 578)" d="m0 0" fill="#F80102"/>
<path transform="translate(1006,577)" d="m0 0" fill="#F80102"/>
<path transform="translate(1189,571)" d="m0 0" fill="#F80102"/>
<path transform="translate(995,571)" d="m0 0" fill="#F80102"/>
<path transform="translate(996,570)" d="m0 0" fill="#F80102"/>
<path transform="translate(997,569)" d="m0 0" fill="#F80102"/>
<path transform="translate(861,568)" d="m0 0" fill="#F80102"/>
<path transform="translate(1201,557)" d="m0 0" fill="#F80102"/>
<path transform="translate(1202,556)" d="m0 0" fill="#F80102"/>
<path transform="translate(1365,554)" d="m0 0" fill="#F80102"/>
<path transform="translate(1014,554)" d="m0 0" fill="#F80102"/>
<path transform="translate(1366,552)" d="m0 0" fill="#F80102"/>
<path transform="translate(1208,551)" d="m0 0" fill="#F80102"/>
<path transform="translate(734,546)" d="m0 0" fill="#F80102"/>
<path transform="translate(939,545)" d="m0 0" fill="#F80102"/>
<path transform="translate(811,545)" d="m0 0" fill="#F80102"/>
<path transform="translate(735,545)" d="m0 0" fill="#F80102"/>
<path transform="translate(1023,544)" d="m0 0" fill="#F80102"/>
<path transform="translate(736,544)" d="m0 0" fill="#F80102"/>
<path transform="translate(812,543)" d="m0 0" fill="#F80102"/>
<path transform="translate(943,542)" d="m0 0" fill="#F80102"/>
<path transform="translate(813,541)" d="m0 0" fill="#F80102"/>
<path transform="translate(814,540)" d="m0 0" fill="#F80102"/>
<path transform="translate(1027,539)" d="m0 0" fill="#F80102"/>
<path transform="translate(684,539)" d="m0 0" fill="#F80102"/>
<path transform="translate(819,531)" d="m0 0" fill="#F80102"/>
<path transform="translate(890,524)" d="m0 0" fill="#F80102"/>
<path transform="translate(824,522)" d="m0 0" fill="#F80102"/>
<path transform="translate(1373,521)" d="m0 0" fill="#F80102"/>
<path transform="translate(1372,520)" d="m0 0" fill="#F80102"/>
<path transform="translate(904,505)" d="m0 0" fill="#F80102"/>
<path transform="translate(862,460)" d="m0 0" fill="#F80102"/>
<path transform="translate(769,455)" d="m0 0" fill="#F80102"/>
<path transform="translate(866,454)" d="m0 0" fill="#F80102"/>
<path transform="translate(867,452)" d="m0 0" fill="#F80102"/>
<path transform="translate(776,450)" d="m0 0" fill="#F80102"/>
<path transform="translate(1037,449)" d="m0 0" fill="#F80102"/>
<path transform="translate(983,449)" d="m0 0" fill="#F80102"/>
<path transform="translate(893,442)" d="m0 0" fill="#F80102"/>
<path transform="translate(1029,436)" d="m0 0" fill="#F80102"/>
<path transform="translate(702,436)" d="m0 0" fill="#F80102"/>
<path transform="translate(1018,423)" d="m0 0" fill="#F80102"/>
<path transform="translate(739,411)" d="m0 0" fill="#F80102"/>
<path transform="translate(952,286)" d="m0 0" fill="#F80102"/>
<path transform="translate(956,227)" d="m0 0" fill="#F80102"/>
<path transform="translate(984,218)" d="m0 0" fill="#F80102"/>
<path transform="translate(546,208)" d="m0 0" fill="#F80102"/>
<path transform="translate(495,187)" d="m0 0" fill="#F80102"/>
<path transform="translate(562,153)" d="m0 0" fill="#F80102"/>
<path transform="translate(565,150)" d="m0 0" fill="#F80102"/>
<path transform="translate(566,149)" d="m0 0" fill="#F80102"/>
<path transform="translate(575,142)" d="m0 0" fill="#F80102"/>
<path transform="translate(495,133)" d="m0 0" fill="#F80102"/>
<path transform="translate(513,112)" d="m0 0" fill="#F80102"/>
<path transform="translate(714,81)" d="m0 0" fill="#F80102"/>
</svg>
